Coordinates
version=1
nRows=11
nColumns=26
inDegrees=yes

Units are S.I. units (second, meters, Newtons, ...)
If the header above contains a line with 'inDegrees', this indicates whether rotational values are in degrees (yes) or radians (no).

endheader
time	pelvis_tilt	pelvis_list	pelvis_rotation	pelvis_tx	pelvis_ty	pelvis_tz	hip_flexion_r	hip_adduction_r	hip_rotation_r	knee_angle_r	knee_angle_r_beta	ankle_angle_r	subtalar_angle_r	mtp_angle_r	hip_flexion_l	hip_adduction_l	hip_rotation_l	knee_angle_l	knee_angle_l_beta	ankle_angle_l	subtalar_angle_l	mtp_angle_l	lumbar_extension	lumbar_bending	lumbar_rotation
      2.50500000	     -6.06644403	     -0.20269329	      1.86709587	     -0.16192028	      1.02523943	     -0.55515159	     12.83892441	     -8.44448626	     -4.93999426	     25.26551500	      0.44096642	     -1.79159919	      0.00000000	      0.00000000	     13.02297535	     -4.45018200	     -1.10977556	     25.19653061	      0.43976242	     -3.64689649	      0.00000000	      0.00000000	     -8.78797795	      1.18808947	      1.43257060
      2.51000000	     -6.10457940	     -0.16920261	      1.83213828	     -0.16202099	      1.02617456	     -0.55535494	     12.92542813	     -8.45767835	     -4.73572074	     25.31398183	      0.44181233	     -1.30747489	      0.00000000	      0.00000000	     13.00164416	     -4.37230297	     -0.99631415	     25.07894136	      0.43771010	     -3.56231783	      0.00000000	      0.00000000	     -8.77716887	      1.15529700	      1.44335506
      2.51500000	     -6.13044534	     -0.14362507	      1.78465292	     -0.16214955	      1.02689751	     -0.55553808	     13.01704068	     -8.45092876	     -4.47677748	     25.40906781	      0.44347189	     -0.84428326	      0.00000000	      0.00000000	     12.97995328	     -4.30660621	     -0.88309040	     25.01200851	      0.43654190	     -3.40024146	      0.00000000	      0.00000000	     -8.78949902	      1.12895394	      1.46457250
      2.52000000	     -6.14410887	     -0.12579930	      1.72417798	     -0.16230542	      1.02740902	     -0.55569440	     13.11349880	     -8.42331838	     -4.16363143	     25.54902219	      0.44591456	     -0.43867514	      0.00000000	      0.00000000	     12.96119147	     -4.25541767	     -0.77967689	     24.99823829	      0.43630157	     -3.19155771	      0.00000000	      0.00000000	     -8.82467186	      1.10753863	      1.49854724
      2.52500000	     -6.14597763	     -0.11453884	      1.65341574	     -0.16248599	      1.02770798	     -0.55582294	     13.21281737	     -8.37514611	     -3.80356720	     25.72880612	      0.44905238	     -0.12009309	      0.00000000	      0.00000000	     12.94994690	     -4.21904361	     -0.69245133	     25.04063884	      0.43704159	     -2.97783721	      0.00000000	      0.00000000	     -8.88088442	      1.08855511	      1.54255941
      2.53000000	     -6.13784009	     -0.10882708	      1.57103883	     -0.16269383	      1.02778963	     -0.55591930	     13.31630484	     -8.30690081	     -3.39628684	     25.94395492	      0.45280743	      0.09729385	      0.00000000	      0.00000000	     12.95200717	     -4.19865171	     -0.63237922	     25.14123795	      0.43879738	     -2.79973308	      0.00000000	      0.00000000	     -8.95619474	      1.06969573	      1.59733307
      2.53500000	     -6.12319062	     -0.10648012	      1.47937140	     -0.16293344	      1.02764342	     -0.55598525	     13.42888187	     -8.22297419	     -2.94943830	     26.19612157	      0.45720857	      0.20957999	      0.00000000	      0.00000000	     12.97448228	     -4.19210261	     -0.60155594	     25.30012025	      0.44157040	     -2.69124010	      0.00000000	      0.00000000	     -9.04694908	      1.04923393	      1.65614596
      2.54000000	     -6.10265643	     -0.10642390	      1.37933625	     -0.16320831	      1.02726509	     -0.55601935	     13.55191641	     -8.12516042	     -2.46892321	     26.48515950	      0.46225324	      0.20434275	      0.00000000	      0.00000000	     13.01755943	     -4.19828376	     -0.59926877	     25.51075788	      0.44524672	     -2.67269985	      0.00000000	      0.00000000	     -9.15310345	      1.02577785	      1.71450857
      2.54500000	     -6.07912031	     -0.10685164	      1.27384619	     -0.16352238	      1.02664866	     -0.55602757	     13.68900744	     -8.01697479	     -1.96534088	     26.80957805	      0.46791541	      0.06118267	      0.00000000	      0.00000000	     13.08144033	     -4.21307336	     -0.61607227	     25.76341690	      0.44965645	     -2.73939770	      0.00000000	      0.00000000	     -9.27124940	      0.99834743	      1.76771952
      2.55000000	     -6.05427627	     -0.10446275	      1.16576031	     -0.16387660	      1.02579339	     -0.55601598	     13.84439053	     -7.90583798	     -1.45159470	     27.17262300	      0.47425174	     -0.22964880	      0.00000000	      0.00000000	     13.16220439	     -4.23004066	     -0.63845798	     26.04539062	      0.45457782	     -2.85435912	      0.00000000	      0.00000000	     -9.40011658	      0.96486424	      1.80995107
      2.55500000	     -6.03079784	     -0.09907411	      1.05852570	     -0.16427425	      1.02469670	     -0.55598727	     14.02124839	     -7.79337485	     -0.93715140	     27.57275763	      0.48123540	     -0.67235203	      0.00000000	      0.00000000	     13.25583112	     -4.24551852	     -0.64815024	     26.34197775	      0.45975424	     -2.96586467	      0.00000000	      0.00000000	     -9.53631855	      0.92594293	      1.84040852
